<svg xmlns="http://www.w3.org/2000/svg" width="500" height="500" viewBox="0 0 500 500" preserveAspectRatio="xMidYMid meet"><path fill="#59c7ac" d="M197.5 145L145 92.5L197.5 40L250 92.5ZM250 92.5L302.5 40L355 92.5L302.5 145ZM302.5 355L355 407.5L302.5 460L250 407.5ZM250 407.5L197.5 460L145 407.5L197.5 355ZM92.5 250L40 197.5L92.5 145L145 197.5ZM355 197.5L407.5 145L460 197.5L407.5 250ZM407.5 250L460 302.5L407.5 355L355 302.5ZM145 302.5L92.5 355L40 302.5L92.5 250ZM250 197.5L250 250L197.5 250ZM302.5 250L250 250L250 197.5ZM250 302.5L250 250L302.5 250ZM197.5 250L250 250L250 302.5Z"></path><path fill="#4c4c4c" d="M40 92.5L92.5 40L145 92.5L92.5 145ZM407.5 40L460 92.5L407.5 145L355 92.5ZM460 407.5L407.5 460L355 407.5L407.5 355ZM92.5 460L40 407.5L92.5 355L145 407.5Z"></path></svg>